<?xml version="1.0" encoding="UTF-8"?>
<svg xmlns="http://www.w3.org/2000/svg" viewBox="0 0 1024 1024" width="1024" height="1024">
  <title>Vilanova Agency favicon</title>
  <style>
    :root {
      --vn-blue: #0b80b6;
      --vn-green: #78ca41;
      --vn-yellow: #fcd715;
      --vn-red: #ed212c;
    }
    @media (prefers-color-scheme: dark) {
      :root {
        --vn-blue: #4fc3f7;
        --vn-green: #9bea6b;
        --vn-yellow: #ffeb3b;
        --vn-red: #ff5252;
      }
    }
    .vn-blue { fill: var(--vn-blue); }
    .vn-green { fill: var(--vn-green); }
    .vn-yellow { fill: var(--vn-yellow); }
    .vn-red { fill: var(--vn-red); }
  </style>
  <svg viewBox="130 740 710 670" width="920" height="920" x="52" y="52">
    <path class="vn-blue" d="M 476.5,918.0 C 499.3,919.6 501.8,919.9 517.0,922.5 C 574.1,932.4 617.8,955.6 638.1,986.9 C 641.3000000000001,991.9 647.4,1005.9 646.6,1006.7 C 646.4,1007.0 643.7,1006.1 640.8000000000001,1004.6 C 612.1,990.8 578.1,1000.0 565.6,1025.2 C 560.5,1035.2 559.3000000000001,1043.6 561.4,1054.1 C 563.5,1064.4 566.4,1069.6 574.9,1078.0 C 586.1999999999999,1089.3 603.9,1096.3 627.3000000000001,1098.9 C 641.2,1100.5 651.8000000000001,1100.2 666.6,1098.1 C 688.6,1094.8 701.0,1090.8 726.6,1078.5 C 743.2,1070.6 768.1,1054.4 783.5,1041.6 C 789.3,1036.8 792.8,1034.4 793.4000000000001,1035.0 C 794.9000000000001,1036.5 796.8000000000001,1050.7 797.6,1065.0 L 798.3000000000001,1077.6 L 792.9000000000001,1082.1 C 786.7,1087.4 776.8000000000001,1094.1 762.3000000000001,1102.9 C 732.5000000000001,1120.9 699.0000000000001,1132.5 664.9000000000001,1136.6 C 621.2,1141.8 571.4000000000001,1129.4 542.8000000000001,1106.3 C 524.6,1091.5 515.0000000000001,1070.7 514.9,1045.8 C 514.8,1018.3 527.9,995.2 552.2,979.6 C 558.0,975.8 559.7,974.3 558.9,973.4 C 558.3,972.7 553.6999999999999,970.8 548.7,969.1 C 508.40000000000003,955.9 455.00000000000006,951.9 405.5,958.5 C 393.2,960.2 368.2,964.9 357.5,967.6 C 348.6,969.8 322.7,978.4 310.5,983.1 C 287.1,992.1 255.7,1009.6 233.5,1025.9 C 213.9,1040.4 183.5,1069.4 172.9,1083.7 C 171.20000000000002,1086.1 169.5,1088.0 169.0,1088.0 C 167.5,1088.0 167.0,1083.5 167.0,1069.3 C 167.0,1050.7 168.6,1035.6 171.10000000000002,1030.5 C 172.3,1028.3 176.90000000000003,1023.1 181.8,1018.8 C 218.70000000000002,985.8 265.1,958.5 312.5,941.9 C 366.7,922.8 424.5,914.4 476.5,918.0"/>
    <path class="vn-green" d="M 343.20000000000005,1069.0 C 357.50000000000006,1070.0 379.00000000000006,1073.2 394.0,1076.6 C 409.5,1080.2 427.9,1086.4 457.20000000000005,1098.1 C 459.80000000000007,1099.1 479.50000000000006,1108.8 501.0,1119.5 C 522.4,1130.2 540.4,1139.0 541.0,1139.0 C 541.5,1139.0 542.0,1139.4 542.0,1140.0 C 542.0,1140.5 542.8,1141.0 543.8000000000001,1141.0 C 544.8000000000001,1141.0 553.7,1144.0 563.6,1147.6 C 600.3000000000001,1161.1 639.7,1167.1 673.0,1164.1 C 685.2,1163.1 704.9,1159.5 716.0,1156.4 C 734.1,1151.4 765.3,1136.1 782.4000000000001,1124.1 C 788.7,1119.7 794.4000000000001,1116.0 795.0,1116.0 C 796.4,1116.0 796.3,1118.4 794.0,1129.6 C 791.4,1142.7 784.4,1165.9 782.1,1169.0 C 778.8000000000001,1173.5 757.5,1183.7 734.9000000000001,1191.4 C 722.0000000000001,1195.9 695.1000000000001,1201.6 681.0,1202.9 C 657.6,1205.1 631.0,1204.0 608.1,1199.9 C 587.8000000000001,1196.4 563.6,1189.8 549.0,1184.0 C 546.5,1183.0 540.0,1180.5 534.5,1178.4 C 525.0,1174.9 485.6,1155.9 465.0,1145.0 C 448.8,1136.4 416.7,1123.5 399.5,1118.7 C 377.6,1112.6 376.6,1112.4 358.5,1110.0 C 326.4,1105.8 293.3,1107.9 265.3,1115.9 C 254.9,1118.9 249.9,1121.0 231.9,1130.0 C 217.6,1137.0 213.1,1139.9 200.9,1149.6 C 193.0,1155.9 186.0,1161.0 185.3,1161.0 C 183.9,1161.0 178.60000000000002,1146.7 175.20000000000002,1133.3 C 173.10000000000002,1125.4 172.8,1122.6 173.60000000000002,1121.3 C 174.20000000000002,1120.3 180.70000000000002,1115.3 188.10000000000002,1110.2 C 221.50000000000003,1087.0 262.8,1072.5 305.5,1069.1 C 320.2,1067.9 326.2,1067.9 343.2,1069.0"/>
    <path class="vn-yellow" d="M 350.0,1141.1 C 355.2,1141.6 362.2,1142.4 365.5,1142.7 C 377.2,1143.9 412.5,1154.6 426.8,1161.3 C 433.2,1164.4 441.8,1168.2 445.8,1170.0 C 449.7,1171.7 459.40000000000003,1176.7 467.3,1181.2 C 510.8,1206.0 555.5,1221.4 602.0,1227.7 C 612.3,1229.1 621.9,1229.5 642.5,1229.5 C 670.9,1229.5 685.3,1228.2 705.0,1223.9 C 710.2,1222.8 718.3,1221.0 723.0,1220.0 C 727.7,1219.0 737.6,1215.9 745.0,1213.1 C 757.9,1208.2 764.0,1206.9 764.0,1209.0 C 764.0,1212.3 732.5,1254.7 727.8000000000001,1257.6 C 726.5000000000001,1258.4 707.7,1262.0 692.5,1264.4 C 680.9,1266.3 656.0,1268.0 641.7,1268.0 C 614.3000000000001,1268.0 569.1,1261.8 546.5,1255.0 C 544.9,1254.5 538.7,1252.7 532.8000000000001,1251.0 C 518.2,1246.8 492.9000000000001,1236.5 473.6,1226.8 C 464.70000000000005,1222.4 457.1,1218.4 456.5,1218.0 C 453.6,1215.9 432.4,1204.9 418.8,1198.6 C 409.8,1194.5 394.40000000000003,1188.9 378.90000000000003,1184.1 C 358.90000000000003,1178.0 327.70000000000005,1175.5 307.0,1178.4 C 296.3,1179.9 278.6,1184.6 269.6,1188.4 C 261.70000000000005,1191.7 237.00000000000003,1208.7 231.10000000000002,1214.9 C 229.70000000000002,1216.5 226.8,1219.6 224.60000000000002,1221.9 C 221.50000000000003,1225.3 220.50000000000003,1225.8 219.3,1224.9 C 215.70000000000002,1221.9 200.0,1197.4 200.0,1194.8 C 200.0,1194.0 204.3,1189.2 209.4,1184.2 C 226.20000000000002,1167.9 252.10000000000002,1153.1 274.0,1147.2 C 302.0,1139.7 322.0,1138.1 350.0,1141.1"/>
    <path class="vn-red" fill-rule="evenodd" d="M 529.0,756.4 C 564.4,760.9 597.6,769.0 626.5,780.5 C 673.4,799.1 711.9,824.0 746.1,857.9 C 763.0,874.8 768.9,881.5999999999999 781.0,898.0 C 819.0,949.7 841.1,1016.9 841.0,1080.3 C 840.9,1119.2 834.2,1153.9 819.5,1190.3 C 808.0,1219.1 795.1,1241.2 774.9000000000001,1266.5 C 754.9000000000001,1291.6 740.3000000000001,1305.7 712.5,1326.6 C 666.0,1361.6 610.5,1384.4 548.5,1393.8 C 531.4,1396.4 528.7,1396.5 494.0,1396.5 C 461.4,1396.5 455.8,1396.2 441.6,1394.2 C 336.1,1379.1 246.80000000000004,1329.1 187.10000000000002,1251.7 C 159.8,1216.3 138.4,1169.0 130.0,1125.4 C 122.7,1087.6 123.3,1042.5 131.4,1006.5 C 143.9,951.6 171.20000000000002,902.8 213.0,860.9 C 230.8,843.0999999999999 250.8,826.5999999999999 269.0,814.8 C 311.0,787.5999999999999 351.7,771.3 402.5,761.0999999999999 C 412.4,759.2 440.4,755.4 451.0,754.5999999999999 C 463.8,753.7 516.9,754.9 529.0,756.4 M 482.9505004666738,818.5109895712842 C 624.8236186941286,818.5109895712842 739.834505101659,933.5218759788145 739.834505101659,1075.3949942062693 C 739.834505101659,1217.2681124337241 624.8236186941286,1332.2789988412544 482.9505004666738,1332.2789988412544 C 341.077382239219,1332.2789988412544 226.06649583168866,1217.2681124337241 226.06649583168866,1075.3949942062693 C 226.06649583168866,933.5218759788145 341.077382239219,818.5109895712842 482.9505004666738,818.5109895712842 z"/>
  </svg>
</svg>